<?xml version="1.0" encoding="UTF-8"?>
<!DOCTYPE svg PUBLIC "-//W3C//DTD SVG 1.1//EN" "http://www.w3.org/Graphics/SVG/1.1/DTD/svg11.dtd">
<svg xmlns="http://www.w3.org/2000/svg" version="1.1" width="356px" height="263px" style="shape-rendering:geometricPrecision; text-rendering:geometricPrecision; image-rendering:optimizeQuality; fill-rule:evenodd; clip-rule:evenodd" xmlns:xlink="http://www.w3.org/1999/xlink">
<g><path style="opacity:0.125" fill="#e7e7e7" d="M 28.5,-0.5 C 76.5,-0.5 124.5,-0.5 172.5,-0.5C 173.491,26.0925 173.824,52.7592 173.5,79.5C 173.5,80.1667 173.167,80.5 172.5,80.5C 172.828,53.9258 172.495,27.4258 171.5,1C 124.167,0.333333 76.8333,0.333333 29.5,1C 28.3356,66.763 28.1689,132.596 29,198.5C 29.7172,199.044 30.2172,199.711 30.5,200.5C 29.5041,200.586 28.6708,200.252 28,199.5C 27.1705,132.763 27.3372,66.0964 28.5,-0.5 Z"/></g>
<g><path style="opacity:0.25" fill="#e7e7e7" d="M 326.5,1.5 C 327.665,67.3321 327.832,133.332 327,199.5C 325.103,201.016 322.936,201.683 320.5,201.5C 320.5,201.167 320.5,200.833 320.5,200.5C 322.582,200.528 324.416,199.861 326,198.5C 326.5,132.834 326.667,67.1675 326.5,1.5 Z"/></g>
<g><path style="opacity:0.926" fill="#efefef" d="M 196.5,10.5 C 202.207,12.9796 208.207,14.8129 214.5,16C 216.451,17.7342 217.451,19.9009 217.5,22.5C 224.865,22.6532 226.865,25.8199 223.5,32C 212.833,32.6667 202.167,32.6667 191.5,32C 185.11,28.7025 184.11,24.3692 188.5,19C 189.793,18.51 191.127,18.3433 192.5,18.5C 192.278,14.9441 193.611,12.2774 196.5,10.5 Z"/></g>
<g><path style="opacity:0.98" fill="#f4f4f4" d="M 71.5,18.5 C 77.8161,17.5762 82.9828,19.5762 87,24.5C 96.3217,23.0142 101.988,27.0142 104,36.5C 108.129,35.4386 111.462,36.772 114,40.5C 115.183,44.2739 114.349,47.4406 111.5,50C 95.0996,50.955 78.7663,50.6217 62.5,49C 55.462,44.4005 54.1287,38.5671 58.5,31.5C 60.8511,29.7711 63.5178,29.1044 66.5,29.5C 65.7753,24.6229 67.4419,20.9563 71.5,18.5 Z"/></g>
<g><path style="opacity:0.898" fill="#efefef" d="M 295.5,25.5 C 300.057,27.1949 304.724,28.6949 309.5,30C 311.037,31.1096 311.703,32.6096 311.5,34.5C 317.04,34.5283 318.707,37.0283 316.5,42C 308.167,42.6667 299.833,42.6667 291.5,42C 287.787,40.3088 286.621,37.4755 288,33.5C 289.11,31.9632 290.61,31.2965 292.5,31.5C 292.615,29.0532 293.615,27.0532 295.5,25.5 Z"/></g>
<g><path style="opacity:0.966" fill="#f4f4f4" d="M 267.5,45.5 C 259.167,45.5 250.833,45.5 242.5,45.5C 242.5,46.8333 242.5,48.1667 242.5,49.5C 254.5,49.5 266.5,49.5 278.5,49.5C 278.5,50.1667 278.5,50.8333 278.5,51.5C 266.829,51.3335 255.162,51.5001 243.5,52C 242.333,52.5 241.5,53.3333 241,54.5C 240.685,56.5856 240.185,58.5856 239.5,60.5C 235.44,60.5153 231.44,60.0153 227.5,59C 220.511,54.8722 218.678,49.0389 222,41.5C 224.587,39.8042 227.421,38.8042 230.5,38.5C 231.765,28.2356 237.098,25.4022 246.5,30C 247.5,31 248.5,32 249.5,33C 259.563,31.5896 265.563,35.7563 267.5,45.5 Z"/></g>
<g><path style="opacity:0.931" fill="#efefef" d="M 130.5,45.5 C 135.126,44.7004 138.96,46.0337 142,49.5C 148.033,48.4943 151.7,51.161 153,57.5C 156.797,56.7415 159.297,58.4081 160.5,62.5C 159.96,63.7481 159.293,64.9148 158.5,66C 147.5,66.6667 136.5,66.6667 125.5,66C 120.951,62.7177 119.951,58.7177 122.5,54C 124.345,52.872 126.345,52.372 128.5,52.5C 128.166,49.812 128.832,47.4786 130.5,45.5 Z"/></g>
<g><path style="opacity:0.917" fill="#f9b98a" d="M 267.5,45.5 C 278.838,45.3335 290.172,45.5001 301.5,46C 311,48.8333 317.167,55 320,64.5C 320.5,89.8311 320.667,115.164 320.5,140.5C 319.292,139.766 317.959,139.433 316.5,139.5C 316.667,115.498 316.5,91.4977 316,67.5C 314.519,59.4937 310.019,54.1603 302.5,51.5C 301.391,50.71 300.058,50.21 298.5,50C 291.842,49.5004 285.175,49.3337 278.5,49.5C 266.5,49.5 254.5,49.5 242.5,49.5C 242.5,48.1667 242.5,46.8333 242.5,45.5C 250.833,45.5 259.167,45.5 267.5,45.5 Z"/></g>
<g><path style="opacity:0.967" fill="#f9b788" d="M 278.5,51.5 C 286.5,51.5 294.5,51.5 302.5,51.5C 302.783,52.2891 303.283,52.9558 304,53.5C 304.667,63.1667 304.667,72.8333 304,82.5C 303.5,83 303,83.5 302.5,84C 282.167,84.6667 261.833,84.6667 241.5,84C 240.874,83.2496 240.374,82.4162 240,81.5C 239.5,74.5079 239.334,67.5079 239.5,60.5C 240.185,58.5856 240.685,56.5856 241,54.5C 241.5,53.3333 242.333,52.5 243.5,52C 255.162,51.5001 266.829,51.3335 278.5,51.5 Z"/></g>
<g><path style="opacity:0.966" fill="#ededed" d="M 230.5,131.5 C 217.5,131.5 204.5,131.5 191.5,131.5C 191.5,114.167 191.5,96.8333 191.5,79.5C 198.833,79.5 206.167,79.5 213.5,79.5C 213.5,77.1667 213.5,74.8333 213.5,72.5C 218.167,72.5 222.833,72.5 227.5,72.5C 227.5,74.8333 227.5,77.1667 227.5,79.5C 228.5,79.5 229.5,79.5 230.5,79.5C 230.5,96.8333 230.5,114.167 230.5,131.5 Z"/></g>
<g><path style="opacity:0.903" fill="#f2f2f2" d="M 182.5,-0.5 C 230.5,-0.5 278.5,-0.5 326.5,-0.5C 326.5,0.166667 326.5,0.833333 326.5,1.5C 278.904,0.338765 231.237,0.172098 183.5,1C 182.339,26.0943 182.173,51.261 183,76.5C 184.011,75.6634 185.178,75.33 186.5,75.5C 186.5,94.1667 186.5,112.833 186.5,131.5C 174.5,131.5 162.5,131.5 150.5,131.5C 150.333,117.496 150.5,103.496 151,89.5C 158.12,86.3558 165.287,83.3558 172.5,80.5C 173.167,80.5 173.5,80.1667 173.5,79.5C 176.167,78.8333 178.833,78.1667 181.5,77.5C 181.176,51.4257 181.51,25.4257 182.5,-0.5 Z"/></g>
<g><path style="opacity:1" fill="#f57d29" d="M 243.5,54.5 C 262.503,54.3334 281.503,54.5001 300.5,55C 301.649,63.4213 301.816,71.9213 301,80.5C 281.907,81.659 262.74,81.8256 243.5,81C 242.18,72.1668 242.18,63.3335 243.5,54.5 Z"/></g>
<g><path style="opacity:1" fill="#fab787" d="M 244.5,56.5 C 262.833,56.5 281.167,56.5 299.5,56.5C 299.5,64.5 299.5,72.5 299.5,80.5C 281.167,80.5 262.833,80.5 244.5,80.5C 244.5,72.5 244.5,64.5 244.5,56.5 Z"/></g>
<g><path style="opacity:1" fill="#fdf0e6" d="M 252.5,65.5 C 254.854,65.838 257.187,66.338 259.5,67C 258.833,67.6667 258.167,68.3333 257.5,69C 259.113,71.2276 259.78,73.7276 259.5,76.5C 258.5,76.5 257.5,76.5 256.5,76.5C 256.662,74.4727 256.495,72.4727 256,70.5C 255.586,70.9574 255.086,71.2907 254.5,71.5C 253.523,69.5891 252.857,67.5891 252.5,65.5 Z"/></g>
<g><path style="opacity:1" fill="#fdf3ec" d="M 287.5,65.5 C 288.833,65.5 290.167,65.5 291.5,65.5C 291.628,67.6547 291.128,69.6547 290,71.5C 289.586,71.0426 289.086,70.7093 288.5,70.5C 287.833,72.1667 287.167,73.8333 286.5,75.5C 285.823,72.5911 285.489,69.7578 285.5,67C 286.416,66.7216 287.082,66.2216 287.5,65.5 Z"/></g>
<g><path style="opacity:1" fill="#fdf1e8" d="M 271.5,64.5 C 273.054,65.9142 274.388,67.5808 275.5,69.5C 274.173,71.3113 273.173,73.3113 272.5,75.5C 271.548,73.9547 271.215,72.288 271.5,70.5C 270.448,70.6495 269.448,70.4828 268.5,70C 269.758,68.2591 270.758,66.4258 271.5,64.5 Z"/></g>
<g><path style="opacity:0.954" fill="#f1f0f0" d="M 90.5,122.5 C 79.6291,123.209 68.6291,123.876 57.5,124.5C 57.1675,111.483 57.5009,98.4829 58.5,85.5C 68.9146,89.6383 79.248,93.9716 89.5,98.5C 90.4977,106.472 90.831,114.472 90.5,122.5 Z"/></g>
<g><path style="opacity:0.946" fill="#f4f4f3" d="M 134.5,131.5 C 131.167,131.5 127.833,131.5 124.5,131.5C 117.28,126.215 109.28,123.215 100.5,122.5C 100.5,112.833 100.5,103.167 100.5,93.5C 111.821,92.3679 123.154,91.3679 134.5,90.5C 134.5,104.167 134.5,117.833 134.5,131.5 Z"/></g>
<g><path style="opacity:0.931" fill="#f0f0f0" d="M 267.5,131.5 C 256.833,131.5 246.167,131.5 235.5,131.5C 235.333,118.829 235.5,106.162 236,93.5C 246.333,97.8333 256.667,102.167 267,106.5C 267.5,114.827 267.666,123.16 267.5,131.5 Z"/></g>
<g><path style="opacity:0.9" fill="#f3f3f3" d="M 301.5,131.5 C 291.833,131.5 282.167,131.5 272.5,131.5C 272.195,126.238 272.529,121.072 273.5,116C 282.675,111.998 292.008,108.498 301.5,105.5C 301.5,114.167 301.5,122.833 301.5,131.5 Z"/></g>
<g><path style="opacity:0.977" fill="#f79b58" d="M 90.5,122.5 C 93.8333,122.5 97.1667,122.5 100.5,122.5C 109.28,123.215 117.28,126.215 124.5,131.5C 99.8333,131.5 75.1667,131.5 50.5,131.5C 51.8552,128.145 54.1886,125.811 57.5,124.5C 68.6291,123.876 79.6291,123.209 90.5,122.5 Z"/></g>
<g><path style="opacity:0.999" fill="#f47215" d="M 50.5,131.5 C 75.1667,131.5 99.8333,131.5 124.5,131.5C 127.833,131.5 131.167,131.5 134.5,131.5C 139.833,131.5 145.167,131.5 150.5,131.5C 162.5,131.5 174.5,131.5 186.5,131.5C 188.167,131.5 189.833,131.5 191.5,131.5C 204.5,131.5 217.5,131.5 230.5,131.5C 232.167,131.5 233.833,131.5 235.5,131.5C 246.167,131.5 256.833,131.5 267.5,131.5C 269.167,131.5 270.833,131.5 272.5,131.5C 282.167,131.5 291.833,131.5 301.5,131.5C 306.913,131.58 310.246,134.247 311.5,139.5C 307.629,139.185 303.962,139.518 300.5,140.5C 286.579,141.482 272.579,141.815 258.5,141.5C 258.5,162.167 258.5,182.833 258.5,203.5C 243.167,203.5 227.833,203.5 212.5,203.5C 200.345,202.505 188.011,202.171 175.5,202.5C 175.827,182.257 175.493,162.091 174.5,142C 163.12,141.189 151.787,141.355 140.5,142.5C 139.501,154.148 139.168,165.814 139.5,177.5C 103.833,177.5 68.1667,177.5 32.5,177.5C 32.5,175.833 32.5,174.167 32.5,172.5C 35.4475,172.777 38.2809,172.444 41,171.5C 41.4998,161.506 41.6665,151.506 41.5,141.5C 38.8333,141.5 36.1667,141.5 33.5,141.5C 36.5152,133.821 42.1818,130.487 50.5,131.5 Z"/></g>
<g><path style="opacity:0.778" fill="#9b9896" d="M 311.5,139.5 C 313.167,139.5 314.833,139.5 316.5,139.5C 317.959,139.433 319.292,139.766 320.5,140.5C 322.776,140.756 323.943,142.09 324,144.5C 324.167,146.333 324.333,148.167 324.5,150C 324.453,152.295 323.787,154.129 322.5,155.5C 322.675,153.379 322.341,151.379 321.5,149.5C 321.784,147.585 321.451,145.919 320.5,144.5C 319.817,142.824 318.483,142.157 316.5,142.5C 315.167,142.5 313.833,142.5 312.5,142.5C 308.702,141.517 304.702,141.183 300.5,141.5C 300.5,141.167 300.5,140.833 300.5,140.5C 303.962,139.518 307.629,139.185 311.5,139.5 Z"/></g>
<g><path style="opacity:0.986" fill="#fdeadc" d="M 33.5,141.5 C 36.1667,141.5 38.8333,141.5 41.5,141.5C 41.6665,151.506 41.4998,161.506 41,171.5C 38.2809,172.444 35.4475,172.777 32.5,172.5C 32.2145,162.115 32.5478,151.782 33.5,141.5 Z"/></g>
<g><path style="opacity:1" fill="#fab786" d="M 51.5,141.5 C 78.8333,141.5 106.167,141.5 133.5,141.5C 133.5,151.833 133.5,162.167 133.5,172.5C 106.167,172.5 78.8333,172.5 51.5,172.5C 51.5,162.167 51.5,151.833 51.5,141.5 Z"/></g>
<g><path style="opacity:1" fill="#e06c1b" d="M 212.5,203.5 C 200.167,203.5 187.833,203.5 175.5,203.5C 171.208,203.965 167.208,203.132 163.5,201C 155.912,192.907 147.912,185.407 139.5,178.5C 103.833,178.5 68.1667,178.5 32.5,178.5C 32.5,178.167 32.5,177.833 32.5,177.5C 68.1667,177.5 103.833,177.5 139.5,177.5C 139.168,165.814 139.501,154.148 140.5,142.5C 151.787,141.355 163.12,141.189 174.5,142C 175.493,162.091 175.827,182.257 175.5,202.5C 188.011,202.171 200.345,202.505 212.5,203.5 Z"/></g>
<g><path style="opacity:1" fill="#f9b887" d="M 181.5,141.5 C 205.833,141.5 230.167,141.5 254.5,141.5C 254.5,154.167 254.5,166.833 254.5,179.5C 230.167,179.5 205.833,179.5 181.5,179.5C 181.5,166.833 181.5,154.167 181.5,141.5 Z"/></g>
<g><path style="opacity:1" fill="#c45b0f" d="M 300.5,140.5 C 300.5,140.833 300.5,141.167 300.5,141.5C 300.5,141.833 300.5,142.167 300.5,142.5C 299.505,153.321 299.172,164.321 299.5,175.5C 295.397,176.09 291.397,177.09 287.5,178.5C 285.5,178.5 283.5,178.5 281.5,178.5C 278.412,177.573 275.412,176.24 272.5,174.5C 273.218,173.863 274.218,173.863 275.5,174.5C 276.647,174.182 277.481,173.516 278,172.5C 278.318,168.805 278.818,165.138 279.5,161.5C 278.965,159.084 277.965,158.917 276.5,161C 276.957,161.414 277.291,161.914 277.5,162.5C 276.366,165.07 275.532,167.736 275,170.5C 271.416,166.123 266.916,164.29 261.5,165C 260.748,165.671 260.414,166.504 260.5,167.5C 259.505,179.322 259.172,191.322 259.5,203.5C 259.167,203.5 258.833,203.5 258.5,203.5C 258.5,182.833 258.5,162.167 258.5,141.5C 272.579,141.815 286.579,141.482 300.5,140.5 Z"/></g>
<g><path style="opacity:1" fill="#f2741c" d="M 300.5,142.5 C 302.167,142.5 303.833,142.5 305.5,142.5C 305.5,156.167 305.5,169.833 305.5,183.5C 305.5,189.167 305.5,194.833 305.5,200.5C 307.833,200.5 310.167,200.5 312.5,200.5C 312.5,200.833 312.5,201.167 312.5,201.5C 312.5,201.833 312.5,202.167 312.5,202.5C 309.167,202.5 305.833,202.5 302.5,202.5C 302.5,206.167 302.5,209.833 302.5,213.5C 305.833,213.5 309.167,213.5 312.5,213.5C 312.5,213.833 312.5,214.167 312.5,214.5C 308.27,215.22 303.937,215.887 299.5,216.5C 299.5,208.833 299.5,201.167 299.5,193.5C 299.5,189.5 299.5,185.5 299.5,181.5C 299.5,180.167 299.5,178.833 299.5,177.5C 299.5,176.833 299.5,176.167 299.5,175.5C 299.172,164.321 299.505,153.321 300.5,142.5 Z"/></g>
<g><path style="opacity:1" fill="#f8b88a" d="M 300.5,142.5 C 300.5,142.167 300.5,141.833 300.5,141.5C 304.702,141.183 308.702,141.517 312.5,142.5C 312.5,147.167 312.5,151.833 312.5,156.5C 310.04,165.469 307.706,174.469 305.5,183.5C 305.5,169.833 305.5,156.167 305.5,142.5C 303.833,142.5 302.167,142.5 300.5,142.5 Z"/></g>
<g><path style="opacity:0.895" fill="#f6b788" d="M 316.5,142.5 C 318.483,142.157 319.817,142.824 320.5,144.5C 320.5,146.167 320.5,147.833 320.5,149.5C 319.18,152.428 318.514,155.761 318.5,159.5C 318.58,163.427 319.247,167.093 320.5,170.5C 320.5,180.5 320.5,190.5 320.5,200.5C 320.5,200.833 320.5,201.167 320.5,201.5C 320.5,210.167 320.5,218.833 320.5,227.5C 319.167,227.5 317.833,227.5 316.5,227.5C 316.5,218.833 316.5,210.167 316.5,201.5C 315.167,201.5 313.833,201.5 312.5,201.5C 312.5,201.167 312.5,200.833 312.5,200.5C 313.833,200.5 315.167,200.5 316.5,200.5C 316.5,181.167 316.5,161.833 316.5,142.5 Z"/></g>
<g><path style="opacity:1" fill="#eeb187" d="M 143.5,143.5 C 153.416,143.181 163.25,143.514 173,144.5C 173.818,154.411 173.651,164.244 172.5,174C 162.589,174.818 152.756,174.651 143,173.5C 142.193,163.423 142.36,153.423 143.5,143.5 Z"/></g>
<g><path style="opacity:1" fill="#fdede0" d="M 53.5,143.5 C 79.5,143.5 105.5,143.5 131.5,143.5C 131.5,152.167 131.5,160.833 131.5,169.5C 105.5,169.5 79.5,169.5 53.5,169.5C 53.5,160.833 53.5,152.167 53.5,143.5 Z"/></g>
<g><path style="opacity:1" fill="#fdeee2" d="M 210.5,143.5 C 208.422,154.891 206.088,166.224 203.5,177.5C 196.833,177.5 190.167,177.5 183.5,177.5C 183.5,166.167 183.5,154.833 183.5,143.5C 192.5,143.5 201.5,143.5 210.5,143.5 Z"/></g>
<g><path style="opacity:1" fill="#fce9da" d="M 210.5,143.5 C 218.167,143.5 225.833,143.5 233.5,143.5C 230.402,154.656 228.069,165.989 226.5,177.5C 218.833,177.5 211.167,177.5 203.5,177.5C 206.088,166.224 208.422,154.891 210.5,143.5 Z"/></g>
<g><path style="opacity:1" fill="#fdeee2" d="M 233.5,143.5 C 239.833,143.5 246.167,143.5 252.5,143.5C 252.5,154.833 252.5,166.167 252.5,177.5C 243.833,177.5 235.167,177.5 226.5,177.5C 228.069,165.989 230.402,154.656 233.5,143.5 Z"/></g>
<g><path style="opacity:1" fill="#fcf3ec" d="M 155.5,172.5 C 151.833,172.5 148.167,172.5 144.5,172.5C 144.5,171.5 144.5,170.5 144.5,169.5C 146.609,162.048 148.276,154.381 149.5,146.5C 153.167,146.5 156.833,146.5 160.5,146.5C 158.834,155.165 157.168,163.831 155.5,172.5 Z"/></g>
<g><path style="opacity:1" fill="#f9e7d9" d="M 155.5,172.5 C 157.168,163.831 158.834,155.165 160.5,146.5C 156.833,146.5 153.167,146.5 149.5,146.5C 148.276,154.381 146.609,162.048 144.5,169.5C 144.5,161.5 144.5,153.5 144.5,145.5C 153.5,145.5 162.5,145.5 171.5,145.5C 171.5,154.5 171.5,163.5 171.5,172.5C 166.167,172.5 160.833,172.5 155.5,172.5 Z"/></g>
<g><path style="opacity:1" fill="#fad8bf" d="M 270.5,153.5 C 267.215,153.21 264.215,153.877 261.5,155.5C 260.959,151.705 262.625,149.705 266.5,149.5C 268.606,150.43 270.606,151.596 272.5,153C 271.906,153.464 271.239,153.631 270.5,153.5 Z"/></g>
<g><path style="opacity:0.964" fill="#515b60" d="M 320.5,149.5 C 320.833,149.5 321.167,149.5 321.5,149.5C 322.341,151.379 322.675,153.379 322.5,155.5C 322.666,160.179 322.499,164.845 322,169.5C 321.617,170.056 321.117,170.389 320.5,170.5C 319.247,167.093 318.58,163.427 318.5,159.5C 318.514,155.761 319.18,152.428 320.5,149.5 Z"/></g>
<g><path style="opacity:1" fill="#a66e5b" d="M 270.5,153.5 C 271.935,159.085 269.935,162.418 264.5,163.5C 264.361,160.412 263.361,157.745 261.5,155.5C 264.215,153.877 267.215,153.21 270.5,153.5 Z"/></g>
<g><path style="opacity:1" fill="#fcdcc4" d="M 312.5,156.5 C 312.5,171.167 312.5,185.833 312.5,200.5C 310.167,200.5 307.833,200.5 305.5,200.5C 305.5,194.833 305.5,189.167 305.5,183.5C 307.706,174.469 310.04,165.469 312.5,156.5 Z"/></g>
<g><path style="opacity:1" fill="#eea774" d="M 281.5,178.5 C 281.5,179.167 281.5,179.833 281.5,180.5C 278.833,180.5 276.167,180.5 273.5,180.5C 273.5,182.5 273.5,184.5 273.5,186.5C 271.833,186.5 270.167,186.5 268.5,186.5C 268.682,184.325 269.349,182.325 270.5,180.5C 270.167,179.833 269.833,179.167 269.5,178.5C 268.051,180.611 267.051,182.944 266.5,185.5C 264.955,186.452 263.288,186.785 261.5,186.5C 260.986,180.178 260.653,173.845 260.5,167.5C 260.414,166.504 260.748,165.671 261.5,165C 266.916,164.29 271.416,166.123 275,170.5C 275.532,167.736 276.366,165.07 277.5,162.5C 277.291,161.914 276.957,161.414 276.5,161C 277.965,158.917 278.965,159.084 279.5,161.5C 278.818,165.138 278.318,168.805 278,172.5C 277.481,173.516 276.647,174.182 275.5,174.5C 274.218,173.863 273.218,173.863 272.5,174.5C 275.412,176.24 278.412,177.573 281.5,178.5 Z"/></g>
<g><path style="opacity:1" fill="#3a3836" d="M 299.5,175.5 C 299.5,176.167 299.5,176.833 299.5,177.5C 295.765,178.301 292.099,179.301 288.5,180.5C 288.167,179.833 287.833,179.167 287.5,178.5C 291.397,177.09 295.397,176.09 299.5,175.5 Z"/></g>
<g><path style="opacity:1" fill="#9c490e" d="M 260.5,167.5 C 260.653,173.845 260.986,180.178 261.5,186.5C 261.389,190.349 262.722,193.516 265.5,196C 271.825,196.5 278.158,196.666 284.5,196.5C 284.5,201.833 284.5,207.167 284.5,212.5C 283.698,211.048 283.198,209.382 283,207.5C 280.615,210.379 278.448,213.379 276.5,216.5C 271.531,215.373 266.531,214.373 261.5,213.5C 259.727,210.512 259.06,207.179 259.5,203.5C 259.172,191.322 259.505,179.322 260.5,167.5 Z"/></g>
<g><path style="opacity:0.994" fill="#f9b685" d="M 32.5,178.5 C 68.1667,178.5 103.833,178.5 139.5,178.5C 139.5,182.833 139.5,187.167 139.5,191.5C 138.244,191.539 137.244,191.039 136.5,190C 105.168,189.5 73.8351,189.333 42.5,189.5C 42.7135,187.856 42.3802,186.356 41.5,185C 39.5273,184.505 37.5273,184.338 35.5,184.5C 35.5,186.167 35.5,187.833 35.5,189.5C 34.5,189.5 33.5,189.5 32.5,189.5C 32.5,185.833 32.5,182.167 32.5,178.5 Z"/></g>
<g><path style="opacity:1" fill="#b07259" d="M 281.5,178.5 C 283.5,178.5 285.5,178.5 287.5,178.5C 287.833,179.167 288.167,179.833 288.5,180.5C 287.791,181.404 286.791,181.737 285.5,181.5C 284.053,180.115 283.053,180.448 282.5,182.5C 281.662,182.158 281.328,181.492 281.5,180.5C 281.5,179.833 281.5,179.167 281.5,178.5 Z"/></g>
<g><path style="opacity:1" fill="#e1a57a" d="M 139.5,178.5 C 147.912,185.407 155.912,192.907 163.5,201C 167.208,203.132 171.208,203.965 175.5,203.5C 175.5,207.167 175.5,210.833 175.5,214.5C 170.821,214.666 166.155,214.499 161.5,214C 154.298,206.631 146.965,199.464 139.5,192.5C 139.5,192.167 139.5,191.833 139.5,191.5C 139.5,187.167 139.5,182.833 139.5,178.5 Z"/></g>
<g><path style="opacity:1" fill="#bf5c15" d="M 299.5,177.5 C 299.5,178.833 299.5,180.167 299.5,181.5C 297.063,181.756 294.729,182.423 292.5,183.5C 291.914,183.291 291.414,182.957 291,182.5C 289.969,183.7 289.135,185.034 288.5,186.5C 289.154,187.815 289.154,188.815 288.5,189.5C 283.35,188.623 278.35,187.623 273.5,186.5C 273.5,184.5 273.5,182.5 273.5,180.5C 276.167,180.5 278.833,180.5 281.5,180.5C 281.328,181.492 281.662,182.158 282.5,182.5C 283.609,182.443 284.609,182.11 285.5,181.5C 286.791,181.737 287.791,181.404 288.5,180.5C 292.099,179.301 295.765,178.301 299.5,177.5 Z"/></g>
<g><path style="opacity:1" fill="#383838" d="M 285.5,181.5 C 284.609,182.11 283.609,182.443 282.5,182.5C 283.053,180.448 284.053,180.115 285.5,181.5 Z"/></g>
<g><path style="opacity:1" fill="#9d490c" d="M 299.5,181.5 C 299.5,185.5 299.5,189.5 299.5,193.5C 297.742,193.123 296.075,192.456 294.5,191.5C 293.893,191.624 293.56,191.957 293.5,192.5C 291.887,191.308 290.22,190.308 288.5,189.5C 289.154,188.815 289.154,187.815 288.5,186.5C 289.135,185.034 289.969,183.7 291,182.5C 291.414,182.957 291.914,183.291 292.5,183.5C 294.729,182.423 297.063,181.756 299.5,181.5 Z"/></g>
<g><path style="opacity:1" fill="#2b3337" d="M 273.5,186.5 C 278.35,187.623 283.35,188.623 288.5,189.5C 290.22,190.308 291.887,191.308 293.5,192.5C 294.09,193.766 294.59,195.099 295,196.5C 295.5,203.492 295.666,210.492 295.5,217.5C 294.167,217.5 292.833,217.5 291.5,217.5C 290.518,208.203 289.518,208.203 288.5,217.5C 287.167,217.5 285.833,217.5 284.5,217.5C 284.5,215.833 284.5,214.167 284.5,212.5C 284.5,207.167 284.5,201.833 284.5,196.5C 278.158,196.666 271.825,196.5 265.5,196C 262.722,193.516 261.389,190.349 261.5,186.5C 263.288,186.785 264.955,186.452 266.5,185.5C 267.051,182.944 268.051,180.611 269.5,178.5C 269.833,179.167 270.167,179.833 270.5,180.5C 269.349,182.325 268.682,184.325 268.5,186.5C 270.167,186.5 271.833,186.5 273.5,186.5 Z"/></g>
<g><path style="opacity:0.999" fill="#f26f11" d="M 32.5,189.5 C 33.5,189.5 34.5,189.5 35.5,189.5C 35.5,191.833 35.5,194.167 35.5,196.5C 35.5,199.833 35.5,203.167 35.5,206.5C 35.5,210.5 35.5,214.5 35.5,218.5C 37.7354,218.795 39.7354,218.461 41.5,217.5C 42.4936,208.348 42.8269,199.015 42.5,189.5C 73.8351,189.333 105.168,189.5 136.5,190C 137.244,191.039 138.244,191.539 139.5,191.5C 139.5,191.833 139.5,192.167 139.5,192.5C 139.5,205.5 139.5,218.5 139.5,231.5C 151.5,231.5 163.5,231.5 175.5,231.5C 175.5,225.833 175.5,220.167 175.5,214.5C 189.167,214.5 202.833,214.5 216.5,214.5C 211.293,220.116 208.626,226.783 208.5,234.5C 181.833,234.5 155.167,234.5 128.5,234.5C 127.723,218.889 119.556,210.222 104,208.5C 88.2857,210.047 80.4524,218.714 80.5,234.5C 73.1239,234.726 65.7906,234.392 58.5,233.5C 50.45,231.888 42.45,229.888 34.5,227.5C 33.2618,218.397 31.9285,209.397 30.5,200.5C 32.4136,197.316 33.0803,193.649 32.5,189.5 Z"/></g>
<g><path style="opacity:1" fill="#fcd9bf" d="M 42.5,189.5 C 41.5318,191.607 41.1984,193.941 41.5,196.5C 39.5,196.5 37.5,196.5 35.5,196.5C 35.5,194.167 35.5,191.833 35.5,189.5C 35.5,187.833 35.5,186.167 35.5,184.5C 37.5273,184.338 39.5273,184.505 41.5,185C 42.3802,186.356 42.7135,187.856 42.5,189.5 Z"/></g>
<g><path style="opacity:1" fill="#be5a15" d="M 299.5,193.5 C 299.5,201.167 299.5,208.833 299.5,216.5C 299.5,218.167 299.5,219.833 299.5,221.5C 297.325,221.318 295.325,220.651 293.5,219.5C 292.259,220.037 291.092,220.704 290,221.5C 288.003,220.34 286.169,220.34 284.5,221.5C 283.833,221.833 283.167,222.167 282.5,222.5C 280.735,221.539 278.735,221.205 276.5,221.5C 276.5,219.833 276.5,218.167 276.5,216.5C 278.448,213.379 280.615,210.379 283,207.5C 283.198,209.382 283.698,211.048 284.5,212.5C 284.5,214.167 284.5,215.833 284.5,217.5C 285.833,217.5 287.167,217.5 288.5,217.5C 289.518,208.203 290.518,208.203 291.5,217.5C 292.833,217.5 294.167,217.5 295.5,217.5C 295.666,210.492 295.5,203.492 295,196.5C 294.59,195.099 294.09,193.766 293.5,192.5C 293.56,191.957 293.893,191.624 294.5,191.5C 296.075,192.456 297.742,193.123 299.5,193.5 Z"/></g>
<g><path style="opacity:1" fill="#dc6610" d="M 139.5,192.5 C 146.965,199.464 154.298,206.631 161.5,214C 166.155,214.499 170.821,214.666 175.5,214.5C 175.5,220.167 175.5,225.833 175.5,231.5C 163.5,231.5 151.5,231.5 139.5,231.5C 139.5,218.5 139.5,205.5 139.5,192.5 Z"/></g>
<g><path style="opacity:1" fill="#fbcead" d="M 245.5,193.5 C 248.187,193.336 250.854,193.503 253.5,194C 254.337,195.011 254.67,196.178 254.5,197.5C 251.482,197.665 248.482,197.498 245.5,197C 244.316,195.855 244.316,194.688 245.5,193.5 Z"/></g>
<g><path style="opacity:1" fill="#f9b17d" d="M 42.5,189.5 C 42.8269,199.015 42.4936,208.348 41.5,217.5C 41.5,213.833 41.5,210.167 41.5,206.5C 39.5,206.5 37.5,206.5 35.5,206.5C 35.5,203.167 35.5,199.833 35.5,196.5C 37.5,196.5 39.5,196.5 41.5,196.5C 41.1984,193.941 41.5318,191.607 42.5,189.5 Z"/></g>
<g><path style="opacity:1" fill="#c45a0e" d="M 63.5,198.5 C 64.8117,200.743 65.4783,203.41 65.5,206.5C 65.1667,209.167 64.8333,211.833 64.5,214.5C 63.5052,209.208 63.1718,203.875 63.5,198.5 Z"/></g>
<g><path style="opacity:0.962" fill="#f9b887" d="M 312.5,202.5 C 312.5,206.167 312.5,209.833 312.5,213.5C 309.167,213.5 305.833,213.5 302.5,213.5C 302.5,209.833 302.5,206.167 302.5,202.5C 305.833,202.5 309.167,202.5 312.5,202.5 Z"/></g>
<g><path style="opacity:1" fill="#f8b685" d="M 175.5,203.5 C 187.833,203.5 200.167,203.5 212.5,203.5C 227.833,203.5 243.167,203.5 258.5,203.5C 258.833,203.5 259.167,203.5 259.5,203.5C 259.06,207.179 259.727,210.512 261.5,213.5C 260.508,213.328 259.842,213.662 259.5,214.5C 256.167,214.5 252.833,214.5 249.5,214.5C 244.301,211.322 238.634,209.322 232.5,208.5C 226.575,209.139 221.242,211.139 216.5,214.5C 202.833,214.5 189.167,214.5 175.5,214.5C 175.5,210.833 175.5,207.167 175.5,203.5 Z"/></g>
<g><path style="opacity:1" fill="#fbd3b5" d="M 35.5,206.5 C 37.5,206.5 39.5,206.5 41.5,206.5C 41.5,210.167 41.5,213.833 41.5,217.5C 39.7354,218.461 37.7354,218.795 35.5,218.5C 35.5,214.5 35.5,210.5 35.5,206.5 Z"/></g>
<g><path style="opacity:0.992" fill="#aa4f0d" d="M 128.5,234.5 C 126.833,234.5 125.167,234.5 123.5,234.5C 123.533,221.367 117.033,214.034 104,212.5C 96.0352,213.795 90.3685,218.128 87,225.5C 86.502,228.482 86.3354,231.482 86.5,234.5C 84.5,234.5 82.5,234.5 80.5,234.5C 80.4524,218.714 88.2857,210.047 104,208.5C 119.556,210.222 127.723,218.889 128.5,234.5 Z"/></g>
<g><path style="opacity:0.991" fill="#ab500f" d="M 249.5,214.5 C 254.921,220.016 257.588,226.683 257.5,234.5C 255.5,234.5 253.5,234.5 251.5,234.5C 251.745,222.077 245.745,214.743 233.5,212.5C 220.691,214.305 214.358,221.638 214.5,234.5C 212.5,234.5 210.5,234.5 208.5,234.5C 208.626,226.783 211.293,220.116 216.5,214.5C 221.242,211.139 226.575,209.139 232.5,208.5C 238.634,209.322 244.301,211.322 249.5,214.5 Z"/></g>
<g><path style="opacity:0.996" fill="#323c40" d="M 123.5,234.5 C 123.039,236.55 122.372,238.55 121.5,240.5C 134.154,241.333 146.82,241.833 159.5,242C 146.167,242.333 132.833,242.667 119.5,243C 118.29,244.039 117.29,245.206 116.5,246.5C 108.966,250.034 101.299,250.367 93.5,247.5C 89.3318,244.164 86.9985,239.831 86.5,234.5C 86.3354,231.482 86.502,228.482 87,225.5C 90.3685,218.128 96.0352,213.795 104,212.5C 117.033,214.034 123.533,221.367 123.5,234.5 Z"/></g>
<g><path style="opacity:0.995" fill="#293339" d="M 251.5,234.5 C 250.558,239.052 248.558,243.052 245.5,246.5C 241.182,248.215 236.682,249.215 232,249.5C 230.167,249.333 228.333,249.167 226.5,249C 224.423,247.295 222.09,246.128 219.5,245.5C 216.499,242.481 214.832,238.815 214.5,234.5C 214.358,221.638 220.691,214.305 233.5,212.5C 245.745,214.743 251.745,222.077 251.5,234.5 Z"/></g>
<g><path style="opacity:1" fill="#f37216" d="M 249.5,214.5 C 252.833,214.5 256.167,214.5 259.5,214.5C 259.5,216.833 259.5,219.167 259.5,221.5C 259.5,223.833 259.5,226.167 259.5,228.5C 259.5,229.167 259.5,229.833 259.5,230.5C 272.673,231.167 286.006,231.833 299.5,232.5C 300.243,233.182 300.909,233.849 301.5,234.5C 286.833,234.5 272.167,234.5 257.5,234.5C 257.588,226.683 254.921,220.016 249.5,214.5 Z"/></g>
<g><path style="opacity:0.983" fill="#f59957" d="M 312.5,214.5 C 313.117,214.611 313.617,214.944 314,215.5C 314.499,219.486 314.666,223.486 314.5,227.5C 314.675,229.621 314.341,231.621 313.5,233.5C 309.702,234.483 305.702,234.817 301.5,234.5C 300.909,233.849 300.243,233.182 299.5,232.5C 286.006,231.833 272.673,231.167 259.5,230.5C 270.833,230.5 282.167,230.5 293.5,230.5C 295.5,230.5 297.5,230.5 299.5,230.5C 299.5,227.833 299.5,225.167 299.5,222.5C 299.5,222.167 299.5,221.833 299.5,221.5C 299.5,219.833 299.5,218.167 299.5,216.5C 303.937,215.887 308.27,215.22 312.5,214.5 Z"/></g>
<g><path style="opacity:1" fill="#f9d4b9" d="M 261.5,213.5 C 266.531,214.373 271.531,215.373 276.5,216.5C 276.5,218.167 276.5,219.833 276.5,221.5C 270.833,221.5 265.167,221.5 259.5,221.5C 259.5,219.167 259.5,216.833 259.5,214.5C 259.842,213.662 260.508,213.328 261.5,213.5 Z"/></g>
<g><path style="opacity:1" fill="#fccdac" d="M 59.5,218.5 C 62.5184,218.335 65.5184,218.502 68.5,219C 69.8333,220 69.8333,221 68.5,222C 65.5,222.667 62.5,222.667 59.5,222C 58.3157,220.855 58.3157,219.688 59.5,218.5 Z"/></g>
<g><path style="opacity:1" fill="#757a7d" d="M 100.5,219.5 C 114.714,219.593 119.214,226.259 114,239.5C 105.499,245.858 98.4993,244.525 93,235.5C 92.3333,232.833 92.3333,230.167 93,227.5C 95.0282,224.308 97.5282,221.641 100.5,219.5 Z"/></g>
<g><path style="opacity:1" fill="#f8ebe2" d="M 259.5,221.5 C 265.167,221.5 270.833,221.5 276.5,221.5C 278.735,221.205 280.735,221.539 282.5,222.5C 282.5,224.5 282.5,226.5 282.5,228.5C 274.833,228.5 267.167,228.5 259.5,228.5C 259.5,226.167 259.5,223.833 259.5,221.5 Z"/></g>
<g><path style="opacity:1" fill="#393633" d="M 299.5,221.5 C 299.5,221.833 299.5,222.167 299.5,222.5C 295.812,222.55 292.145,222.884 288.5,223.5C 286.667,223.415 285.334,222.748 284.5,221.5C 286.169,220.34 288.003,220.34 290,221.5C 291.092,220.704 292.259,220.037 293.5,219.5C 295.325,220.651 297.325,221.318 299.5,221.5 Z"/></g>
<g><path style="opacity:1" fill="#9a4a10" d="M 284.5,221.5 C 285.334,222.748 286.667,223.415 288.5,223.5C 292.145,222.884 295.812,222.55 299.5,222.5C 299.5,225.167 299.5,227.833 299.5,230.5C 297.5,230.5 295.5,230.5 293.5,230.5C 290.054,229.313 286.387,228.646 282.5,228.5C 282.5,226.5 282.5,224.5 282.5,222.5C 283.167,222.167 283.833,221.833 284.5,221.5 Z"/></g>
<g><path style="opacity:1" fill="#9ba1a4" d="M 228.5,219.5 C 240.837,218.669 246.004,224.336 244,236.5C 239.283,243.796 233.116,245.296 225.5,241C 221.695,236.909 220.528,232.076 222,226.5C 223.694,223.642 225.861,221.309 228.5,219.5 Z"/></g>
<g><path style="opacity:1" fill="#cdd0d2" d="M 230.5,222.5 C 238.472,222.636 241.972,226.636 241,234.5C 238.459,239.069 234.625,240.569 229.5,239C 222.615,233.205 222.948,227.705 230.5,222.5 Z"/></g>
<g><path style="opacity:1" fill="#a7aaab" d="M 230.5,226.5 C 237.524,226.489 239.524,229.489 236.5,235.5C 231.702,237.782 228.702,236.449 227.5,231.5C 227.757,229.308 228.757,227.641 230.5,226.5 Z"/></g>
<g><path style="opacity:0.631" fill="#ebe6e2" d="M 34.5,227.5 C 42.45,229.888 50.45,231.888 58.5,233.5C 38.8333,233.5 19.1667,233.5 -0.5,233.5C -0.5,233.167 -0.5,232.833 -0.5,232.5C 10.5,232.5 21.5,232.5 32.5,232.5C 32.1201,230.302 32.7868,228.635 34.5,227.5 Z"/></g>
<g><path style="opacity:0.592" fill="#ebe9e9" d="M 314.5,227.5 C 315.167,227.5 315.833,227.5 316.5,227.5C 317.833,227.5 319.167,227.5 320.5,227.5C 322.213,228.635 322.88,230.302 322.5,232.5C 333.5,232.5 344.5,232.5 355.5,232.5C 355.5,232.833 355.5,233.167 355.5,233.5C 341.5,233.5 327.5,233.5 313.5,233.5C 314.341,231.621 314.675,229.621 314.5,227.5 Z"/></g>
<g><path style="opacity:1" fill="#ebcab3" d="M 259.5,228.5 C 267.167,228.5 274.833,228.5 282.5,228.5C 286.387,228.646 290.054,229.313 293.5,230.5C 282.167,230.5 270.833,230.5 259.5,230.5C 259.5,229.833 259.5,229.167 259.5,228.5 Z"/></g>
<g><path style="opacity:1" fill="#333e44" d="M 103.5,228.5 C 108.197,229.874 108.531,231.874 104.5,234.5C 101.025,232.916 100.692,230.916 103.5,228.5 Z"/></g>
<g><path style="opacity:1" fill="#364146" d="M 231.5,228.5 C 236.161,229.324 236.661,231.324 233,234.5C 230.327,233.142 229.827,231.142 231.5,228.5 Z"/></g>
<g><path style="opacity:0.125" fill="#e6e7e6" d="M 281.5,237.5 C 285.981,236.352 290.648,236.185 295.5,237C 290.845,237.499 286.179,237.666 281.5,237.5 Z"/></g>
<g><path style="opacity:0.125" fill="#e6e7e6" d="M 36.5,239.5 C 46.6584,238.341 56.9917,238.175 67.5,239C 57.172,239.5 46.8387,239.666 36.5,239.5 Z"/></g>
<g><path style="opacity:0.125" fill="#e8e8e8" d="M 73.5,239.5 C 74.9464,238.387 76.6131,238.22 78.5,239C 76.8659,239.494 75.1992,239.66 73.5,239.5 Z"/></g>
<g><path style="opacity:0.125" fill="#e7e7e7" d="M 295.5,244.5 C 303.656,243.343 311.99,243.177 320.5,244C 312.173,244.5 303.84,244.666 295.5,244.5 Z"/></g>
<g><path style="opacity:0.97" fill="#f4f4f4" d="M 219.5,245.5 C 222.09,246.128 224.423,247.295 226.5,249C 228.333,249.167 230.167,249.333 232,249.5C 236.682,249.215 241.182,248.215 245.5,246.5C 268.313,246.678 290.98,248.511 313.5,252C 314.973,252.71 315.64,253.876 315.5,255.5C 307.252,257.178 298.919,258.345 290.5,259C 266.688,260.475 243.021,261.642 219.5,262.5C 191.5,262.5 163.5,262.5 135.5,262.5C 111.979,261.642 88.3119,260.475 64.5,259C 56.081,258.345 47.7477,257.178 39.5,255.5C 40.0767,252.355 42.0767,250.855 45.5,251C 61.4212,248.744 77.4212,247.577 93.5,247.5C 101.299,250.367 108.966,250.034 116.5,246.5C 150.819,245.556 185.153,245.223 219.5,245.5 Z"/></g>
</svg>
