<?xml version="1.0" encoding="UTF-8"?>
<!DOCTYPE svg PUBLIC "-//W3C//DTD SVG 1.1//EN" "http://www.w3.org/Graphics/SVG/1.1/DTD/svg11.dtd">
<svg xmlns="http://www.w3.org/2000/svg" version="1.1" width="100px" height="163px" style="shape-rendering:geometricPrecision; text-rendering:geometricPrecision; image-rendering:optimizeQuality; fill-rule:evenodd; clip-rule:evenodd" xmlns:xlink="http://www.w3.org/1999/xlink">
<g><path style="opacity:1" fill="#fdfdfc" d="M -0.5,-0.5 C 32.8333,-0.5 66.1667,-0.5 99.5,-0.5C 99.5,53.8333 99.5,108.167 99.5,162.5C 66.1667,162.5 32.8333,162.5 -0.5,162.5C -0.5,108.167 -0.5,53.8333 -0.5,-0.5 Z"/></g>
<g><path style="opacity:1" fill="#dd7c69" d="M 37.5,19.5 C 38.9778,19.238 40.3112,19.5713 41.5,20.5C 40.6798,22.1112 39.3464,22.7778 37.5,22.5C 37.5,21.5 37.5,20.5 37.5,19.5 Z"/></g>
<g><path style="opacity:1" fill="#d55f48" d="M 54.5,17.5 C 55.5,17.5 56.5,17.5 57.5,17.5C 57.4495,21.1881 57.1162,24.8548 56.5,28.5C 56.3262,30.6934 56.9929,32.5267 58.5,34C 57.4366,35.1882 56.1033,35.6882 54.5,35.5C 54.557,31.8669 53.557,31.7002 51.5,35C 47.874,35.8376 46.2073,34.3376 46.5,30.5C 47.1372,25.8687 49.8039,23.8687 54.5,24.5C 54.5,22.1667 54.5,19.8333 54.5,17.5 Z"/></g>
<g><path style="opacity:1" fill="#faece9" d="M 49.5,27.5 C 51.1667,27.5 52.8333,27.5 54.5,27.5C 54.7067,30.1268 53.54,31.7935 51,32.5C 48.3894,31.5001 47.8894,29.8334 49.5,27.5 Z"/></g>
<g><path style="opacity:1" fill="#da6e59" d="M 39.5,24.5 C 40.4959,24.4142 41.3292,24.7476 42,25.5C 42.2565,28.557 42.7565,31.557 43.5,34.5C 42.3112,35.4287 40.9778,35.762 39.5,35.5C 39.2126,31.6839 39.2126,28.0173 39.5,24.5 Z"/></g>
<g><path style="opacity:1" fill="#d76651" d="M 64.5,26.5 C 67.0444,26.1043 69.2111,26.771 71,28.5C 71.7112,30.3668 71.2112,31.8668 69.5,33C 67.4132,32.7821 65.4132,32.9488 63.5,33.5C 65.0588,35.1307 67.0588,35.964 69.5,36C 62.49,39.3299 59.99,37.1633 62,29.5C 63.045,28.6266 63.8783,27.6266 64.5,26.5 Z"/></g>
<g><path style="opacity:1" fill="#f4d2cb" d="M 65.5,28.5 C 66.9953,28.4148 67.9953,29.0815 68.5,30.5C 67.1667,31.8333 65.8333,31.8333 64.5,30.5C 64.8627,29.8165 65.1961,29.1499 65.5,28.5 Z"/></g>
<g><path style="opacity:1" fill="#d86a54" d="M 31.5,26.5 C 32.8333,26.5 34.1667,26.5 35.5,26.5C 35.5,27.5 35.5,28.5 35.5,29.5C 34.5,29.5 33.5,29.5 32.5,29.5C 32.3801,31.7345 32.7135,33.9011 33.5,36C 33.3865,37.2798 32.7199,38.1131 31.5,38.5C 31.0798,34.3304 29.7465,30.6637 27.5,27.5C 29.099,27.7678 30.4324,27.4345 31.5,26.5 Z"/></g>
<g><path style="opacity:1" fill="#a44b0c" d="M 30.5,56.5 C 43.3268,55.3398 56.3268,55.1731 69.5,56C 70,56.5 70.5,57 71,57.5C 71.8259,69.0076 71.6593,80.3409 70.5,91.5C 70.8064,88.6146 70.4731,85.9479 69.5,83.5C 69.6663,76.4921 69.4996,69.4921 69,62.5C 62.7443,61.8429 56.4109,61.5096 50,61.5C 43.5891,61.5096 37.2557,61.8429 31,62.5C 30.5004,69.4921 30.3337,76.4921 30.5,83.5C 29.5269,85.9479 29.1936,88.6146 29.5,91.5C 28.5104,85.69 28.1771,79.69 28.5,73.5C 28.5,72.8333 28.5,72.1667 28.5,71.5C 28.1805,66.6367 28.5139,61.97 29.5,57.5C 29.5,58.5 29.5,59.5 29.5,60.5C 41.8378,60.6665 54.1712,60.4999 66.5,60C 62.5,59 62.5,58 66.5,57C 54.5046,56.5001 42.5046,56.3335 30.5,56.5 Z"/></g>
<g><path style="opacity:1" fill="#291e1a" d="M 69.5,83.5 C 56.5,84.8333 43.5,84.8333 30.5,83.5C 30.3337,76.4921 30.5004,69.4921 31,62.5C 37.2557,61.8429 43.5891,61.5096 50,61.5C 56.4109,61.5096 62.7443,61.8429 69,62.5C 69.4996,69.4921 69.6663,76.4921 69.5,83.5 Z"/></g>
<g><path style="opacity:1" fill="#d8e6f7" d="M 32.5,63.5 C 44.1667,63.5 55.8333,63.5 67.5,63.5C 67.5,70.1667 67.5,76.8333 67.5,83.5C 55.8333,83.5 44.1667,83.5 32.5,83.5C 32.5,76.8333 32.5,70.1667 32.5,63.5 Z"/></g>
<g><path style="opacity:1" fill="#211c19" d="M 59.5,109.5 C 61.631,108.686 63.9644,108.186 66.5,108C 67.3802,106.644 67.7135,105.144 67.5,103.5C 63.8333,103.5 60.1667,103.5 56.5,103.5C 51.8333,103.5 47.1667,103.5 42.5,103.5C 42.5,104.833 42.5,106.167 42.5,107.5C 41.5655,106.432 41.2322,105.099 41.5,103.5C 37.8333,103.5 34.1667,103.5 30.5,103.5C 30.1667,103.5 29.8333,103.5 29.5,103.5C 29.5,102.833 29.8333,102.5 30.5,102.5C 43.5043,102.667 56.5043,102.5 69.5,102C 70.3366,100.989 70.67,99.8221 70.5,98.5C 67.5,98.5 64.5,98.5 61.5,98.5C 61.6618,92.6702 64.6618,90.3369 70.5,91.5C 71.6593,80.3409 71.8259,69.0076 71,57.5C 70.5,57 70,56.5 69.5,56C 56.3268,55.1731 43.3268,55.3398 30.5,56.5C 29.8333,56.5 29.5,56.8333 29.5,57.5C 28.5139,61.97 28.1805,66.6367 28.5,71.5C 27.8343,68.9723 27.1676,66.3056 26.5,63.5C 25.6747,67.1224 25.1747,70.789 25,74.5C 23.3333,75.8333 21.6667,75.8333 20,74.5C 19.3333,70.5 19.3333,66.5 20,62.5C 22.3806,61.565 24.8806,61.2317 27.5,61.5C 26.8333,56.1667 29.1667,53.8333 34.5,54.5C 34.2865,52.8561 34.6198,51.3561 35.5,50C 45.1667,49.3333 54.8333,49.3333 64.5,50C 65.3802,51.3561 65.7135,52.8561 65.5,54.5C 70.8333,53.8333 73.1667,56.1667 72.5,61.5C 75.1194,61.2317 77.6194,61.565 80,62.5C 80.6667,66.5 80.6667,70.5 80,74.5C 78.3333,75.8333 76.6667,75.8333 75,74.5C 74.8253,70.789 74.3253,67.1224 73.5,63.5C 72.6673,76.4872 72.1673,89.4872 72,102.5C 70.1299,104.248 68.9632,106.415 68.5,109C 65.5184,109.498 62.5184,109.665 59.5,109.5 Z"/></g>
<g><path style="opacity:1" fill="#c0580d" d="M 21.5,63.5 C 22.7773,64.6936 23.4439,66.3603 23.5,68.5C 23.1667,70.1667 22.8333,71.8333 22.5,73.5C 21.513,70.2317 21.1796,66.8984 21.5,63.5 Z"/></g>
<g><path style="opacity:1" fill="#f36f10" d="M 30.5,56.5 C 42.5046,56.3335 54.5046,56.5001 66.5,57C 62.5,58 62.5,59 66.5,60C 54.1712,60.4999 41.8378,60.6665 29.5,60.5C 29.5,59.5 29.5,58.5 29.5,57.5C 29.5,56.8333 29.8333,56.5 30.5,56.5 Z"/></g>
<g><path style="opacity:1" fill="#412007" d="M 39.5,57.5 C 46.5316,57.1697 53.5316,57.503 60.5,58.5C 57,58.8333 53.5,59.1667 50,59.5C 46.0982,59.4877 42.5982,58.821 39.5,57.5 Z"/></g>
<g><path style="opacity:1" fill="#6a310a" d="M 34.5,57.5 C 36.337,57.6395 36.6704,58.3061 35.5,59.5C 34.7025,59.0431 34.3691,58.3764 34.5,57.5 Z"/></g>
<g><path style="opacity:1" fill="#833123" d="M 62.5,51.5 C 63.404,52.209 63.7373,53.209 63.5,54.5C 54.3178,54.8266 45.3178,54.4933 36.5,53.5C 45.5645,54.1364 54.2312,53.4698 62.5,51.5 Z"/></g>
<g><path style="opacity:1" fill="#b94731" d="M 62.5,51.5 C 54.2312,53.4698 45.5645,54.1364 36.5,53.5C 36.4142,52.5041 36.7476,51.6708 37.5,51C 46.0104,50.1768 54.3437,50.3434 62.5,51.5 Z"/></g>
<g><path style="opacity:1" fill="#c55a0d" d="M 76.5,63.5 C 77.7773,64.6936 78.4439,66.3603 78.5,68.5C 78.1667,70.1667 77.8333,71.8333 77.5,73.5C 76.513,70.2317 76.1796,66.8984 76.5,63.5 Z"/></g>
<g><path style="opacity:1" fill="#271a0f" d="M 28.5,73.5 C 28.1771,79.69 28.5104,85.69 29.5,91.5C 35.3382,90.3369 38.3382,92.6702 38.5,98.5C 35.5,98.5 32.5,98.5 29.5,98.5C 29.4326,99.9587 29.7659,101.292 30.5,102.5C 29.8333,102.5 29.5,102.833 29.5,103.5C 28.8826,103.389 28.3826,103.056 28,102.5C 27.1754,92.6578 27.342,82.9911 28.5,73.5 Z"/></g>
<g><path style="opacity:1" fill="#f1be54" d="M 29.5,93.5 C 32.3641,93.0642 34.6975,93.8975 36.5,96C 34.1902,96.4966 31.8568,96.6633 29.5,96.5C 29.5,95.5 29.5,94.5 29.5,93.5 Z"/></g>
<g><path style="opacity:1" fill="#e3680f" d="M 30.5,83.5 C 43.5,84.8333 56.5,84.8333 69.5,83.5C 70.4731,85.9479 70.8064,88.6146 70.5,91.5C 64.6618,90.3369 61.6618,92.6702 61.5,98.5C 64.5,98.5 67.5,98.5 70.5,98.5C 70.67,99.8221 70.3366,100.989 69.5,102C 56.5043,102.5 43.5043,102.667 30.5,102.5C 29.7659,101.292 29.4326,99.9587 29.5,98.5C 32.5,98.5 35.5,98.5 38.5,98.5C 38.3382,92.6702 35.3382,90.3369 29.5,91.5C 29.1936,88.6146 29.5269,85.9479 30.5,83.5 Z"/></g>
<g><path style="opacity:1" fill="#e5b550" d="M 64.5,93.5 C 66.8333,93.5 69.1667,93.5 71.5,93.5C 71.5,94.5 71.5,95.5 71.5,96.5C 69.1667,96.5 66.8333,96.5 64.5,96.5C 64.5,95.5 64.5,94.5 64.5,93.5 Z"/></g>
<g><path style="opacity:1" fill="#1b1411" d="M 52.5,89.5 C 48.9792,90.1663 45.3125,90.8329 41.5,91.5C 42.1667,92.8333 42.8333,94.1667 43.5,95.5C 47.8333,96.8333 52.1667,96.8333 56.5,95.5C 57.9501,94.1502 58.6168,92.4835 58.5,90.5C 56.901,90.7678 55.5676,90.4345 54.5,89.5C 56.3792,88.6586 58.3792,88.3253 60.5,88.5C 60.0015,91.8286 59.0015,94.9953 57.5,98C 52.467,98.8289 47.467,98.6623 42.5,97.5C 40.6294,94.7659 39.6294,91.7659 39.5,88.5C 43.9315,88.2307 48.2648,88.564 52.5,89.5 Z"/></g>
<g><path style="opacity:1" fill="#5c555d" d="M 52.5,89.5 C 53.1667,89.5 53.8333,89.5 54.5,89.5C 55.5676,90.4345 56.901,90.7678 58.5,90.5C 58.6168,92.4835 57.9501,94.1502 56.5,95.5C 52.1667,96.8333 47.8333,96.8333 43.5,95.5C 42.8333,94.1667 42.1667,92.8333 41.5,91.5C 45.3125,90.8329 48.9792,90.1663 52.5,89.5 Z"/></g>
<g><path style="opacity:1" fill="#151316" d="M 45.5,92.5 C 48.5719,92.1826 51.5719,92.5159 54.5,93.5C 53,93.8333 51.5,94.1667 50,94.5C 48.0145,94.4313 46.5145,93.7647 45.5,92.5 Z"/></g>
<g><path style="opacity:1" fill="#353236" d="M 30.5,103.5 C 34.1667,103.5 37.8333,103.5 41.5,103.5C 41.2322,105.099 41.5655,106.432 42.5,107.5C 42.5,107.833 42.5,108.167 42.5,108.5C 38.9221,109.589 35.2554,109.755 31.5,109C 30.5939,107.301 30.2606,105.467 30.5,103.5 Z"/></g>
<g><path style="opacity:1" fill="#838383" d="M 56.5,103.5 C 56.5,103.833 56.5,104.167 56.5,104.5C 52.1667,104.5 47.8333,104.5 43.5,104.5C 43.7678,106.099 43.4345,107.432 42.5,108.5C 42.5,108.167 42.5,107.833 42.5,107.5C 42.5,106.167 42.5,104.833 42.5,103.5C 47.1667,103.5 51.8333,103.5 56.5,103.5 Z"/></g>
<g><path style="opacity:1" fill="#3e3b3f" d="M 56.5,103.5 C 60.1667,103.5 63.8333,103.5 67.5,103.5C 67.7135,105.144 67.3802,106.644 66.5,108C 63.9644,108.186 61.631,108.686 59.5,109.5C 57.2729,108.599 56.2729,106.933 56.5,104.5C 56.5,104.167 56.5,103.833 56.5,103.5 Z"/></g>
<g><path style="opacity:1" fill="#d7654f" d="M 44.5,125.5 C 54.2851,125.142 55.9518,128.642 49.5,136C 47.5594,136.743 45.7261,136.576 44,135.5C 43.2534,132.076 43.42,128.743 44.5,125.5 Z"/></g>
<g><path style="opacity:1" fill="#d86954" d="M 26.5,121.5 C 27.8333,121.5 29.1667,121.5 30.5,121.5C 30.281,122.675 30.6143,123.675 31.5,124.5C 38.5294,122.391 40.196,124.558 36.5,131C 37.838,133.724 36.838,134.891 33.5,134.5C 33.162,131.843 33.8287,129.51 35.5,127.5C 35.1667,126.5 34.5,125.833 33.5,125.5C 30.9763,127.19 28.9763,129.357 27.5,132C 26.5165,132.591 25.8499,132.257 25.5,131C 27.5546,127.97 27.888,124.804 26.5,121.5 Z"/></g>
<g><path style="opacity:1" fill="#fbeeec" d="M 46.5,127.5 C 50.0681,127.759 51.4015,129.759 50.5,133.5C 48.8333,133.5 47.1667,133.5 45.5,133.5C 45.3253,131.379 45.6586,129.379 46.5,127.5 Z"/></g>
<g><path style="opacity:1" fill="#d76650" d="M 70.5,121.5 C 71.4959,121.414 72.3292,121.748 73,122.5C 73.6667,125.5 73.6667,128.5 73,131.5C 71.1353,133.673 68.9686,134.007 66.5,132.5C 65.3265,135.279 63.4932,135.946 61,134.5C 59.9502,131.124 58.4502,128.124 56.5,125.5C 58.3904,125.297 59.8904,125.963 61,127.5C 61.4709,129.246 62.1376,130.913 63,132.5C 64.2989,131.91 65.1322,130.91 65.5,129.5C 64.554,127.742 64.554,126.075 65.5,124.5C 67.2825,126.023 67.9492,128.023 67.5,130.5C 71.9962,129.539 72.6629,127.206 69.5,123.5C 69.8627,122.817 70.1961,122.15 70.5,121.5 Z"/></g>
</svg>
