<?xml version="1.0" encoding="UTF-8"?>
<!DOCTYPE svg PUBLIC "-//W3C//DTD SVG 1.1//EN" "http://www.w3.org/Graphics/SVG/1.1/DTD/svg11.dtd">
<svg xmlns="http://www.w3.org/2000/svg" version="1.1" width="70px" height="114px" style="shape-rendering:geometricPrecision; text-rendering:geometricPrecision; image-rendering:optimizeQuality; fill-rule:evenodd; clip-rule:evenodd" xmlns:xlink="http://www.w3.org/1999/xlink">
<g><path style="opacity:0.071" fill="#e79484" d="M 29.5,17.5 C 27.9519,17.8212 27.2852,18.8212 27.5,20.5C 26.5,19.1667 25.5,19.1667 24.5,20.5C 24.1788,18.9519 23.1788,18.2852 21.5,18.5C 23.0419,17.8365 24.7086,17.1698 26.5,16.5C 25.0791,13.5717 26.0791,12.2384 29.5,12.5C 28.9285,14.36 28.9285,16.0267 29.5,17.5 Z"/></g>
<g><path style="opacity:0.839" fill="#da6e5a" d="M 21.5,18.5 C 23.1788,18.2852 24.1788,18.9519 24.5,20.5C 23.8347,22.6979 23.1681,25.0312 22.5,27.5C 20.1866,24.8785 18.8533,21.8785 18.5,18.5C 19.5,18.5 20.5,18.5 21.5,18.5 Z"/></g>
<g><path style="opacity:0.918" fill="#d6614a" d="M 29.5,17.5 C 29.8333,20.1667 30.1667,22.8333 30.5,25.5C 29.5,25.5 28.5,25.5 27.5,25.5C 27.5,23.8333 27.5,22.1667 27.5,20.5C 27.2852,18.8212 27.9519,17.8212 29.5,17.5 Z"/></g>
<g><path style="opacity:0.812" fill="#dc735e" d="M 37.5,10.5 C 38.4959,10.4142 39.3292,10.7476 40,11.5C 40.4621,15.9043 40.7955,20.2376 41,24.5C 38.9564,25.0059 36.9564,25.3393 35,25.5C 30.9708,23.3883 30.4708,20.5549 33.5,17C 34.7932,16.51 36.1266,16.3433 37.5,16.5C 36.7249,14.3881 36.7249,12.3881 37.5,10.5 Z M 34.5,19.5 C 36.337,19.6395 36.6704,20.3061 35.5,21.5C 34.7025,21.0431 34.3691,20.3764 34.5,19.5 Z"/></g>
<g><path style="opacity:0.98" fill="#db725e" d="M 45.5,17.5 C 50.0685,17.0826 51.5685,19.0826 50,23.5C 49.6258,24.4162 49.1258,25.2496 48.5,26C 46.5273,26.4955 44.5273,26.6621 42.5,26.5C 42.3367,24.1432 42.5034,21.8098 43,19.5C 43.9947,18.9341 44.828,18.2674 45.5,17.5 Z"/></g>
<g><path style="opacity:0.625" fill="#463228" d="M 50.5,38.5 C 50.5,48.1667 50.5,57.8333 50.5,67.5C 50.1667,67.5 49.8333,67.5 49.5,67.5C 48.3931,65.1534 46.7264,64.82 44.5,66.5C 44.5,66.1667 44.5,65.8333 44.5,65.5C 45.5521,63.744 47.2188,63.0773 49.5,63.5C 49.5,55.5 49.5,47.5 49.5,39.5C 39.8333,39.5 30.1667,39.5 20.5,39.5C 21.069,43.3293 20.4023,46.6627 18.5,49.5C 18.6602,47.8008 18.4935,46.1341 18,44.5C 17.502,47.4816 17.3354,50.4816 17.5,53.5C 16.1667,53.5 14.8333,53.5 13.5,53.5C 13.5,49.8333 13.5,46.1667 13.5,42.5C 15.1667,42.5 16.8333,42.5 18.5,42.5C 17.8333,38.5 19.5,36.8333 23.5,37.5C 23.33,36.1779 23.6634,35.0113 24.5,34C 31.1667,33.3333 37.8333,33.3333 44.5,34C 45.9733,34.7096 46.6399,35.8762 46.5,37.5C 48.099,37.2322 49.4324,37.5655 50.5,38.5 Z"/></g>
<g><path style="opacity:1" fill="#c54b35" d="M 25.5,35.5 C 31.8682,35.1703 38.2015,35.5037 44.5,36.5C 41.3333,36.8333 38.1667,37.1667 35,37.5C 31.4242,37.4848 28.2575,36.8182 25.5,35.5 Z"/></g>
<g><path style="opacity:1" fill="#9b470b" d="M 14.5,43.5 C 15.7479,44.3339 16.4146,45.6672 16.5,47.5C 16.1667,48.8333 15.8333,50.1667 15.5,51.5C 14.52,48.9135 14.1866,46.2469 14.5,43.5 Z"/></g>
<g><path style="opacity:0.412" fill="#474747" d="M 50.5,38.5 C 51.4345,39.5676 51.7678,40.901 51.5,42.5C 53.4147,42.2155 55.0813,42.5489 56.5,43.5C 55.1667,43.5 53.8333,43.5 52.5,43.5C 52.5,46.5 52.5,49.5 52.5,52.5C 51.8333,58.8333 51.1667,65.1667 50.5,71.5C 50.5,70.1667 50.5,68.8333 50.5,67.5C 50.5,57.8333 50.5,48.1667 50.5,38.5 Z"/></g>
<g><path style="opacity:1" fill="#3f2617" d="M 56.5,43.5 C 56.5,46.8333 56.5,50.1667 56.5,53.5C 54.901,53.7678 53.5676,53.4345 52.5,52.5C 52.5,49.5 52.5,46.5 52.5,43.5C 53.8333,43.5 55.1667,43.5 56.5,43.5 Z"/></g>
<g><path style="opacity:0.634" fill="#39312e" d="M 18.5,51.5 C 20.4228,55.0293 21.0894,59.0293 20.5,63.5C 20.5,64.1667 20.5,64.8333 20.5,65.5C 21.1834,67.1765 22.5168,67.8432 24.5,67.5C 25.1667,67.1667 25.8333,66.8333 26.5,66.5C 25.0821,68.3079 23.0821,68.9746 20.5,68.5C 20.5,69.5 20.5,70.5 20.5,71.5C 23.963,72.0115 27.2963,73.0115 30.5,74.5C 30.5858,75.4959 30.2524,76.3292 29.5,77C 24.6097,78.4184 21.1097,76.9184 19,72.5C 18.5004,65.5079 18.3337,58.5079 18.5,51.5 Z"/></g>
<g><path style="opacity:1" fill="#d96411" d="M 44.5,65.5 C 43.596,66.209 43.2627,67.209 43.5,68.5C 45.5,68.5 47.5,68.5 49.5,68.5C 49.5,69.5 49.5,70.5 49.5,71.5C 39.8333,71.5 30.1667,71.5 20.5,71.5C 20.5,70.5 20.5,69.5 20.5,68.5C 23.0821,68.9746 25.0821,68.3079 26.5,66.5C 25.3202,64.087 23.3202,63.087 20.5,63.5C 21.0894,59.0293 20.4228,55.0293 18.5,51.5C 18.5,50.8333 18.5,50.1667 18.5,49.5C 20.4023,46.6627 21.069,43.3293 20.5,39.5C 30.1667,39.5 39.8333,39.5 49.5,39.5C 49.5,47.5 49.5,55.5 49.5,63.5C 47.2188,63.0773 45.5521,63.744 44.5,65.5 Z"/></g>
<g><path style="opacity:1" fill="#78787f" d="M 22.5,44.5 C 30.6499,43.5073 38.9832,43.1739 47.5,43.5C 48.8333,48.5 48.8333,53.5 47.5,58.5C 38.9832,58.8261 30.6499,58.4927 22.5,57.5C 30.5,57.5 38.5,57.5 46.5,57.5C 46.5,53.1667 46.5,48.8333 46.5,44.5C 38.5,44.5 30.5,44.5 22.5,44.5 Z"/></g>
<g><path style="opacity:1" fill="#dae8f9" d="M 22.5,44.5 C 30.5,44.5 38.5,44.5 46.5,44.5C 46.5,48.8333 46.5,53.1667 46.5,57.5C 38.5,57.5 30.5,57.5 22.5,57.5C 22.5,53.1667 22.5,48.8333 22.5,44.5 Z"/></g>
<g><path style="opacity:1" fill="#271302" d="M 47.5,43.5 C 38.9832,43.1739 30.6499,43.5073 22.5,44.5C 22.5,48.8333 22.5,53.1667 22.5,57.5C 30.6499,58.4927 38.9832,58.8261 47.5,58.5C 39.0161,59.493 30.3494,59.8264 21.5,59.5C 21.5,53.8333 21.5,48.1667 21.5,42.5C 30.3494,42.1736 39.0161,42.507 47.5,43.5 Z"/></g>
<g><path style="opacity:1" fill="#38241c" d="M 36.5,62.5 C 34.3926,63.4682 32.0593,63.8016 29.5,63.5C 29.5,64.5 29.5,65.5 29.5,66.5C 28.0687,65.2196 27.4021,63.5529 27.5,61.5C 30.7131,61.19 33.7131,61.5233 36.5,62.5 Z"/></g>
<g><path style="opacity:1" fill="#514c52" d="M 36.5,62.5 C 37.1667,62.5 37.8333,62.5 38.5,62.5C 40.4554,63.4474 40.7887,64.7807 39.5,66.5C 36.1259,67.7505 32.7926,67.7505 29.5,66.5C 29.5,65.5 29.5,64.5 29.5,63.5C 32.0593,63.8016 34.3926,63.4682 36.5,62.5 Z"/></g>
<g><path style="opacity:1" fill="#271811" d="M 29.5,66.5 C 32.7926,67.7505 36.1259,67.7505 39.5,66.5C 40.7887,64.7807 40.4554,63.4474 38.5,62.5C 39.5676,61.5655 40.901,61.2322 42.5,61.5C 42.5966,66.6522 40.0966,68.9856 35,68.5C 32.7047,68.4535 30.8714,67.7868 29.5,66.5 Z"/></g>
<g><path style="opacity:1" fill="#facb5e" d="M 20.5,65.5 C 22.4832,65.1568 23.8166,65.8235 24.5,67.5C 22.5168,67.8432 21.1834,67.1765 20.5,65.5 Z"/></g>
<g><path style="opacity:1" fill="#5e3c15" d="M 20.5,63.5 C 23.3202,63.087 25.3202,64.087 26.5,66.5C 25.8333,66.8333 25.1667,67.1667 24.5,67.5C 23.8166,65.8235 22.4832,65.1568 20.5,65.5C 20.5,64.8333 20.5,64.1667 20.5,63.5 Z"/></g>
<g><path style="opacity:1" fill="#f0c259" d="M 49.5,67.5 C 47.5853,67.7845 45.9187,67.4511 44.5,66.5C 46.7264,64.82 48.3931,65.1534 49.5,67.5 Z"/></g>
<g><path style="opacity:0.768" fill="#0a0603" d="M 44.5,65.5 C 44.5,65.8333 44.5,66.1667 44.5,66.5C 45.9187,67.4511 47.5853,67.7845 49.5,67.5C 49.8333,67.5 50.1667,67.5 50.5,67.5C 50.5,68.8333 50.5,70.1667 50.5,71.5C 50.5,71.8333 50.5,72.1667 50.5,72.5C 46.6286,72.185 42.9619,72.5184 39.5,73.5C 36.2869,73.19 33.2869,73.5233 30.5,74.5C 27.2963,73.0115 23.963,72.0115 20.5,71.5C 30.1667,71.5 39.8333,71.5 49.5,71.5C 49.5,70.5 49.5,69.5 49.5,68.5C 47.5,68.5 45.5,68.5 43.5,68.5C 43.2627,67.209 43.596,66.209 44.5,65.5 Z"/></g>
<g><path style="opacity:1" fill="#423f43" d="M 50.5,72.5 C 49.8466,73.8068 49.1799,75.1401 48.5,76.5C 45.5719,77.4841 42.5719,77.8174 39.5,77.5C 39.5,76.1667 39.5,74.8333 39.5,73.5C 42.9619,72.5184 46.6286,72.185 50.5,72.5 Z"/></g>
<g><path style="opacity:1" fill="#db6f5a" d="M 30.5,86.5 C 37.232,85.4816 39.232,88.1483 36.5,94.5C 31.3353,96.864 28.6686,95.1974 28.5,89.5C 29.1925,88.4822 29.8592,87.4822 30.5,86.5 Z M 32.5,90.5 C 34.337,90.6395 34.6704,91.3061 33.5,92.5C 32.7025,92.0431 32.3691,91.3764 32.5,90.5 Z"/></g>
<g><path style="opacity:0.92" fill="#da6f5b" d="M 18.5,84.5 C 21.1272,85.0916 23.7938,85.4249 26.5,85.5C 26.3797,88.9594 26.0464,92.1261 25.5,95C 24.5509,95.6172 23.7175,95.4506 23,94.5C 22.6948,92.4432 22.6948,90.4432 23,88.5C 21.7432,90.7458 19.9099,92.0791 17.5,92.5C 18.3767,89.6756 18.71,87.009 18.5,84.5 Z"/></g>
<g><path style="opacity:0.97" fill="#dc7662" d="M 48.5,84.5 C 49.5,84.5 50.5,84.5 51.5,84.5C 53.3945,91.3629 50.8945,95.0295 44,95.5C 42.0559,94.3125 40.5559,92.6458 39.5,90.5C 38.5713,89.3112 38.238,87.9778 38.5,86.5C 40.451,86.2267 41.951,86.8934 43,88.5C 44.7068,86.184 46.5401,84.8507 48.5,84.5 Z M 47.5,87.5 C 49.7602,88.2376 49.9269,89.2376 48,90.5C 47.5172,89.552 47.3505,88.552 47.5,87.5 Z"/></g>
</svg>
