<?xml version="1.0" encoding="UTF-8"?>
<!DOCTYPE svg PUBLIC "-//W3C//DTD SVG 1.1//EN" "http://www.w3.org/Graphics/SVG/1.1/DTD/svg11.dtd">
<svg xmlns="http://www.w3.org/2000/svg" version="1.1" width="339px" height="258px" style="shape-rendering:geometricPrecision; text-rendering:geometricPrecision; image-rendering:optimizeQuality; fill-rule:evenodd; clip-rule:evenodd" xmlns:xlink="http://www.w3.org/1999/xlink">
<g><path style="opacity:0.913" fill="#4a4860" d="M 91.5,-0.5 C 122.833,-0.5 154.167,-0.5 185.5,-0.5C 194.925,2.42863 200.759,8.76196 203,18.5C 203.5,72.499 203.667,126.499 203.5,180.5C 203.5,181.167 203.5,181.833 203.5,182.5C 203.667,200.836 203.5,219.17 203,237.5C 200.75,245.71 195.917,251.71 188.5,255.5C 155.493,256.826 122.493,256.826 89.5,255.5C 82.0306,252.189 77.1973,246.522 75,238.5C 74.5,203.502 74.3333,168.502 74.5,133.5C 74.5,132.833 74.5,132.167 74.5,131.5C 74.9377,113.121 74.2711,94.7878 72.5,76.5C 72.2975,72.5956 72.9642,68.9289 74.5,65.5C 71.9207,57.8452 71.9207,50.1786 74.5,42.5C 73.8333,39.8333 73.1667,37.1667 72.5,34.5C 73.9098,28.9197 74.7431,23.253 75,17.5C 77.6193,8.71947 83.1193,2.71947 91.5,-0.5 Z"/></g>
<g><path style="opacity:1" fill="#e5e4e5" d="M 93.5,1.5 C 123.835,1.33335 154.168,1.50002 184.5,2C 191.909,4.40839 197.076,9.24172 200,16.5C 200.667,90.5 200.667,164.5 200,238.5C 198.325,244.841 194.492,249.341 188.5,252C 156.227,253.645 123.894,253.978 91.5,253C 82.9733,249.799 78.1399,243.632 77,234.5C 76.3333,162.833 76.3333,91.1667 77,19.5C 79.6193,10.7195 85.1193,4.71947 93.5,1.5 Z"/></g>
<g><path style="opacity:1" fill="#fefefe" d="M 91.5,5.5 C 93.924,5.19244 96.2573,5.52577 98.5,6.5C 104.567,20.3757 110.234,34.3757 115.5,48.5C 104.5,48.5 93.5,48.5 82.5,48.5C 82.3335,36.8286 82.5001,25.1619 83,13.5C 85.0738,9.92315 87.9072,7.25648 91.5,5.5 Z"/></g>
<g><path style="opacity:1" fill="#fefefe" d="M 155.5,46.5 C 154.486,47.6737 153.153,48.3404 151.5,48.5C 140.147,48.8322 128.814,48.4988 117.5,47.5C 111.629,33.5932 105.629,19.7598 99.5,6C 102.817,5.50166 106.15,5.33499 109.5,5.5C 109.245,9.49251 110.911,12.3258 114.5,14C 128.163,14.4999 141.829,14.6666 155.5,14.5C 155.5,25.1667 155.5,35.8333 155.5,46.5 Z"/></g>
<g><path style="opacity:1" fill="#fefefe" d="M 179.5,48.5 C 172.613,44.6096 165.28,43.6096 157.5,45.5C 157.5,35.1667 157.5,24.8333 157.5,14.5C 163.736,15.0986 167.069,12.2652 167.5,6C 174.608,5.07608 181.608,5.40942 188.5,7C 191.04,9.2047 193.207,11.7047 195,14.5C 195.5,25.8284 195.667,37.1618 195.5,48.5C 190.167,48.5 184.833,48.5 179.5,48.5 Z"/></g>
<g><path style="opacity:1" fill="#f47215" d="M 179.5,48.5 C 188.873,55.6216 191.873,64.9549 188.5,76.5C 182.608,90.6288 174.941,103.629 165.5,115.5C 162.243,111.312 159.243,106.979 156.5,102.5C 156.068,101.29 155.401,100.29 154.5,99.5C 149.94,91.7134 145.94,83.7134 142.5,75.5C 142.768,73.901 142.434,72.5676 141.5,71.5C 141.083,63.8145 143.417,57.1479 148.5,51.5C 149.833,50.8333 150.833,49.8333 151.5,48.5C 153.153,48.3404 154.486,47.6737 155.5,46.5C 156.492,46.6716 157.158,46.3382 157.5,45.5C 165.28,43.6096 172.613,44.6096 179.5,48.5 Z"/></g>
<g><path style="opacity:1" fill="#fffefe" d="M 148.5,51.5 C 143.417,57.1479 141.083,63.8145 141.5,71.5C 141.5,72.5 141.5,73.5 141.5,74.5C 121.833,74.5 102.167,74.5 82.5,74.5C 82.5,66.5 82.5,58.5 82.5,50.5C 104.673,50.1693 126.673,50.5026 148.5,51.5 Z"/></g>
<g><path style="opacity:0.86" fill="#f3f3f3" d="M 234.5,53.5 C 243.693,53.2148 247.193,57.5481 245,66.5C 240.307,70.9042 234.807,73.9042 228.5,75.5C 227.304,70.142 227.471,64.8087 229,59.5C 230.36,56.9774 232.193,54.9774 234.5,53.5 Z"/></g>
<g><path style="opacity:1" fill="#fffbf8" d="M 162.5,54.5 C 173.202,54.0592 178.369,59.0592 178,69.5C 174.666,78.4164 168.499,81.2497 159.5,78C 150.824,68.9032 151.824,61.0698 162.5,54.5 Z"/></g>
<g><path style="opacity:0.629" fill="#f1f1f1" d="M 224.5,75.5 C 227.389,75.999 228.056,77.499 226.5,80C 225.552,80.4828 224.552,80.6495 223.5,80.5C 223.366,78.7085 223.699,77.0418 224.5,75.5 Z"/></g>
<g><path style="opacity:1" fill="#fefefd" d="M 142.5,75.5 C 145.94,83.7134 149.94,91.7134 154.5,99.5C 130.523,101.49 106.19,102.157 81.5,101.5C 81.5,92.8333 81.5,84.1667 81.5,75.5C 101.833,75.5 122.167,75.5 142.5,75.5 Z"/></g>
<g><path style="opacity:0.934" fill="#302e41" d="M 279.5,109.5 C 278.972,108.279 278.305,107.113 277.5,106C 275.064,106.053 272.731,105.887 270.5,105.5C 269.894,103.291 269.227,101.124 268.5,99C 266.482,98.4954 264.482,97.9954 262.5,97.5C 262.055,94.6354 262.722,92.1354 264.5,90C 270.193,88.0513 275.86,88.0513 281.5,90C 287.246,94.986 288.079,100.819 284,107.5C 282.89,109.037 281.39,109.703 279.5,109.5 Z"/></g>
<g><path style="opacity:0.875" fill="#f9b4b4" d="M 262.5,97.5 C 264.482,97.9954 266.482,98.4954 268.5,99C 269.227,101.124 269.894,103.291 270.5,105.5C 272.731,105.887 275.064,106.053 277.5,106C 278.305,107.113 278.972,108.279 279.5,109.5C 272.493,113.255 266.993,111.589 263,104.5C 262.503,102.19 262.337,99.8568 262.5,97.5 Z"/></g>
<g><path style="opacity:1" fill="#fefefd" d="M 171.5,127.5 C 170.157,122.922 167.157,121.422 162.5,123C 161.177,123.816 160.511,124.983 160.5,126.5C 134.241,127.49 107.908,127.824 81.5,127.5C 81.5,119.167 81.5,110.833 81.5,102.5C 106.5,102.5 131.5,102.5 156.5,102.5C 159.243,106.979 162.243,111.312 165.5,115.5C 174.941,103.629 182.608,90.6288 188.5,76.5C 190.717,75.6314 193.05,75.298 195.5,75.5C 195.5,92.8333 195.5,110.167 195.5,127.5C 187.5,127.5 179.5,127.5 171.5,127.5 Z"/></g>
<g><path style="opacity:0.472" fill="#f0f0f0" d="M 74.5,131.5 C 74.5,132.167 74.5,132.833 74.5,133.5C 56.0743,126.969 37.741,120.135 19.5,113C 22.9467,112.808 26.28,113.475 29.5,115C 44.4084,120.802 59.4084,126.302 74.5,131.5 Z"/></g>
<g><path style="opacity:0.987" fill="#f36f12" d="M 280.5,175.5 C 273.076,179.856 265.076,182.022 256.5,182C 255.069,181.535 253.903,180.701 253,179.5C 253,176.167 253,172.833 253,169.5C 250.386,171.556 247.553,173.223 244.5,174.5C 243.903,174.265 243.57,173.765 243.5,173C 246.308,164.906 249.308,156.906 252.5,149C 248.955,148.283 245.455,148.45 242,149.5C 240.251,149.252 239.418,148.252 239.5,146.5C 239.5,144.5 239.5,142.5 239.5,140.5C 239.414,139.504 239.748,138.671 240.5,138C 245.866,137.348 251.199,136.515 256.5,135.5C 258.487,129.887 260.32,124.22 262,118.5C 269.741,112.076 277.075,112.742 284,120.5C 287.442,128.551 291.276,136.384 295.5,144C 291.8,152.046 287.633,159.88 283,167.5C 282.257,169.441 282.424,171.274 283.5,173C 282.627,174.045 281.627,174.878 280.5,175.5 Z"/></g>
<g><path style="opacity:1" fill="#f4761e" d="M 171.5,127.5 C 171.5,127.833 171.5,128.167 171.5,128.5C 170.441,131.869 168.108,133.536 164.5,133.5C 164.158,132.662 163.492,132.328 162.5,132.5C 161.4,131.395 160.733,130.062 160.5,128.5C 160.5,127.833 160.5,127.167 160.5,126.5C 160.511,124.983 161.177,123.816 162.5,123C 167.157,121.422 170.157,122.922 171.5,127.5 Z"/></g>
<g><path style="opacity:1" fill="#fefffe" d="M 82.5,128.5 C 89.8333,128.5 97.1667,128.5 104.5,128.5C 104.5,145.5 104.5,162.5 104.5,179.5C 97.1667,179.5 89.8333,179.5 82.5,179.5C 82.5,162.5 82.5,145.5 82.5,128.5 Z"/></g>
<g><path style="opacity:1" fill="#fefefe" d="M 160.5,128.5 C 160.733,130.062 161.4,131.395 162.5,132.5C 159.578,139.511 156.245,146.344 152.5,153C 137.17,153.5 121.837,153.667 106.5,153.5C 106.5,145.167 106.5,136.833 106.5,128.5C 124.5,128.5 142.5,128.5 160.5,128.5 Z"/></g>
<g><path style="opacity:1" fill="#fefefe" d="M 171.5,128.5 C 179.5,128.5 187.5,128.5 195.5,128.5C 195.5,136.833 195.5,145.167 195.5,153.5C 181.817,153.833 168.15,153.499 154.5,152.5C 157.608,145.947 160.941,139.614 164.5,133.5C 168.108,133.536 170.441,131.869 171.5,128.5 Z"/></g>
<g><path style="opacity:0.87" fill="#ffb7b7" d="M 239.5,140.5 C 239.5,142.5 239.5,144.5 239.5,146.5C 237.638,149.33 234.971,150.163 231.5,149C 228.966,146.413 228.966,143.747 231.5,141C 234.146,140.503 236.813,140.336 239.5,140.5 Z"/></g>
<g><path style="opacity:0.917" fill="#f3f3f3" d="M 25.5,145.5 C 36.9062,144.075 43.0729,149.075 44,160.5C 44.4996,167.158 44.6663,173.825 44.5,180.5C 34.2191,177.946 25.3858,172.946 18,165.5C 14.6621,156.527 17.1621,149.86 25.5,145.5 Z"/></g>
<g><path style="opacity:1" fill="#fefefe" d="M 106.5,155.5 C 121.167,155.5 135.833,155.5 150.5,155.5C 147.526,163.617 143.859,171.451 139.5,179C 128.505,179.5 117.505,179.667 106.5,179.5C 106.5,171.5 106.5,163.5 106.5,155.5 Z"/></g>
<g><path style="opacity:1" fill="#fefefe" d="M 152.5,155.5 C 166.833,155.5 181.167,155.5 195.5,155.5C 195.5,163.5 195.5,171.5 195.5,179.5C 177.488,179.833 159.488,179.5 141.5,178.5C 145.451,170.933 149.117,163.266 152.5,155.5 Z"/></g>
<g><path style="opacity:1" fill="#feb5b2" d="M 273.5,164.5 C 277.848,165.887 279.348,168.887 278,173.5C 274.464,176.492 271.964,175.825 270.5,171.5C 271.057,168.954 272.057,166.621 273.5,164.5 Z"/></g>
<g><path style="opacity:0.946" fill="#2f2e40" d="M 280.5,175.5 C 279.903,186.506 279.237,197.506 278.5,208.5C 278.5,208.833 278.5,209.167 278.5,209.5C 279.203,220.304 279.87,231.138 280.5,242C 280.693,244.008 280.026,245.508 278.5,246.5C 275.941,246.198 273.607,246.532 271.5,247.5C 270.178,247.67 269.011,247.337 268,246.5C 265.764,232.213 263.931,217.88 262.5,203.5C 262.5,202.833 262.5,202.167 262.5,201.5C 262.902,189.07 260.569,188.404 255.5,199.5C 254.662,199.842 254.328,200.508 254.5,201.5C 253.636,202.688 252.636,203.855 251.5,205C 255.768,214.872 259.768,224.872 263.5,235C 263.361,236.301 262.695,237.134 261.5,237.5C 259.181,237.992 257.181,238.992 255.5,240.5C 252.698,243.362 250.531,243.029 249,239.5C 245.333,228.5 241.667,217.5 238,206.5C 237.416,202.673 237.916,199.006 239.5,195.5C 239.5,194.833 239.5,194.167 239.5,193.5C 241.319,187.226 242.985,180.893 244.5,174.5C 247.553,173.223 250.386,171.556 253,169.5C 253,172.833 253,176.167 253,179.5C 253.903,180.701 255.069,181.535 256.5,182C 265.076,182.022 273.076,179.856 280.5,175.5 Z M 262.5,201.5 C 260.167,200.833 257.833,200.167 255.5,199.5C 260.569,188.404 262.902,189.07 262.5,201.5 Z"/></g>
<g><path style="opacity:0.481" fill="#f0f0f0" d="M 203.5,180.5 C 215.646,184.437 227.646,188.771 239.5,193.5C 239.5,194.167 239.5,194.833 239.5,195.5C 227.71,190.606 215.71,186.272 203.5,182.5C 203.5,181.833 203.5,181.167 203.5,180.5 Z"/></g>
<g><path style="opacity:1" fill="#fefefe" d="M 82.5,181.5 C 89.8333,181.5 97.1667,181.5 104.5,181.5C 104.5,194.833 104.5,208.167 104.5,221.5C 97.1667,221.5 89.8333,221.5 82.5,221.5C 82.5,208.167 82.5,194.833 82.5,181.5 Z"/></g>
<g><path style="opacity:1" fill="#fefefe" d="M 106.5,181.5 C 117.172,181.333 127.839,181.5 138.5,182C 131.872,194.755 125.372,207.589 119,220.5C 114.934,221.464 110.767,221.797 106.5,221.5C 106.5,208.167 106.5,194.833 106.5,181.5 Z"/></g>
<g><path style="opacity:1" fill="#fefefe" d="M 139.5,181.5 C 158.167,181.5 176.833,181.5 195.5,181.5C 195.5,194.833 195.5,208.167 195.5,221.5C 170.491,221.833 145.491,221.5 120.5,220.5C 127.117,207.601 133.45,194.601 139.5,181.5 Z"/></g>
<g><path style="opacity:0.785" fill="#f1f1f1" d="M 45.5,182.5 C 50.2411,182.161 51.5744,184.161 49.5,188.5C 46.8489,189.842 45.1823,189.008 44.5,186C 44.6483,184.744 44.9816,183.577 45.5,182.5 Z"/></g>
<g><path style="opacity:0.434" fill="#efeeef" d="M 255.5,199.5 C 257.833,200.167 260.167,200.833 262.5,201.5C 262.5,202.167 262.5,202.833 262.5,203.5C 259.888,202.629 257.221,201.963 254.5,201.5C 254.328,200.508 254.662,199.842 255.5,199.5 Z"/></g>
<g><path style="opacity:0.474" fill="#f0f0f0" d="M 278.5,209.5 C 278.5,209.167 278.5,208.833 278.5,208.5C 298.5,215.5 318.5,222.5 338.5,229.5C 338.5,230.167 338.5,230.833 338.5,231.5C 318.289,224.727 298.289,217.394 278.5,209.5 Z"/></g>
<g><path style="opacity:1" fill="#fefefe" d="M 82.5,222.5 C 109.833,222.5 137.167,222.5 164.5,222.5C 164.5,231.833 164.5,241.167 164.5,250.5C 139.435,250.972 114.435,250.472 89.5,249C 86.527,247.235 84.3604,244.735 83,241.5C 82.5005,235.175 82.3338,228.842 82.5,222.5 Z"/></g>
<g><path style="opacity:1" fill="#fefefe" d="M 166.5,222.5 C 176.167,222.5 185.833,222.5 195.5,222.5C 198.996,245.336 189.33,254.669 166.5,250.5C 166.5,241.167 166.5,231.833 166.5,222.5 Z"/></g>
<g><path style="opacity:0.894" fill="#f6b2b2" d="M 261.5,237.5 C 261.833,238.833 262.167,240.167 262.5,241.5C 260.887,243.088 258.887,244.088 256.5,244.5C 256.167,243.167 255.833,241.833 255.5,240.5C 257.181,238.992 259.181,237.992 261.5,237.5 Z"/></g>
<g><path style="opacity:0.845" fill="#302e41" d="M 262.5,241.5 C 264.755,243.531 266.088,246.198 266.5,249.5C 261.058,250.758 255.724,252.425 250.5,254.5C 247.804,248.683 249.804,245.35 256.5,244.5C 258.887,244.088 260.887,243.088 262.5,241.5 Z"/></g>
<g><path style="opacity:0.813" fill="#e8a9aa" d="M 278.5,246.5 C 278.5,247.5 278.5,248.5 278.5,249.5C 276.059,250.756 273.726,250.756 271.5,249.5C 271.5,248.833 271.5,248.167 271.5,247.5C 273.607,246.532 275.941,246.198 278.5,246.5 Z"/></g>
<g><path style="opacity:0.928" fill="#353346" d="M 266.5,249.5 C 268.167,249.5 269.833,249.5 271.5,249.5C 273.726,250.756 276.059,250.756 278.5,249.5C 279.461,251.265 279.795,253.265 279.5,255.5C 273.5,256.833 267.5,256.833 261.5,255.5C 262.473,252.865 264.14,250.865 266.5,249.5 Z"/></g>
<g><path style="opacity:0.476" fill="#cacaca" d="M -0.5,255.5 C 29.5,255.5 59.5,255.5 89.5,255.5C 122.493,256.826 155.493,256.826 188.5,255.5C 212.833,255.5 237.167,255.5 261.5,255.5C 267.5,256.833 273.5,256.833 279.5,255.5C 299.167,255.5 318.833,255.5 338.5,255.5C 338.5,256.167 338.5,256.833 338.5,257.5C 225.5,257.5 112.5,257.5 -0.5,257.5C -0.5,256.833 -0.5,256.167 -0.5,255.5 Z"/></g>
</svg>
